<svg id="sw-js-blob-svg" viewBox="0 0 100 100" xmlns="http://www.w3.org/2000/svg">
    <defs> 
        <linearGradient id="sw-gradient" x1="0" x2="1" y1="1" y2="0">
            <stop id="stop1" stop-color="rgba(12.801, 0, 255, 1)" offset="0%"></stop>
            <stop id="stop2" stop-color="rgba(24.317, 28.517, 73.551, 1)" offset="100%"></stop>
        </linearGradient>
    </defs>
    <path fill="url(#sw-gradient)" d="M21.4,-27.3C27.8,-20.2,33,-13.5,36,-5.1C39,3.3,39.9,13.4,36,21.4C32.1,29.3,23.5,35.2,14.5,37.4C5.5,39.7,-4,38.4,-13.7,35.7C-23.4,33,-33.2,28.9,-37.2,21.7C-41.1,14.4,-39.2,3.9,-36.4,-5.5C-33.7,-14.9,-30.1,-23.3,-23.9,-30.5C-17.7,-37.6,-8.8,-43.7,-0.7,-42.9C7.5,-42.1,15,-34.5,21.4,-27.3Z" width="100%" height="100%" transform="translate(50 50)" stroke-width="0" style="transition: all 0.3s ease 0s;" stroke="url(#sw-gradient)"></path>
</svg>